<?xml version="1.0" encoding="utf-8"?>
<!-- Generator: Adobe Illustrator 24.2.1, SVG Export Plug-In . SVG Version: 6.00 Build 0)  -->
<svg version="1.1" id="Layer_1" xmlns="http://www.w3.org/2000/svg" xmlns:xlink="http://www.w3.org/1999/xlink" x="0px" y="0px"
	 viewBox="0 0 312.1 33.7" style="enable-background:new 0 0 312.1 33.7;" xml:space="preserve">
<g>
	<path d="M102.9,3.5c2.2,0.3,5,0.5,7.6,1.3c1.3,0.4,3.2,2.1,3.1,3c-0.2,1.7-1.4,3.5-2.7,4.6c-1,0.8-2.8,0.9-4.2,0.8
		c-8.9-0.1-8.9-0.1-11.4,8.5c-0.3,1-0.4,1.9-0.7,2.9c-0.9,3.5-2.6,6.8-6.7,5.1c-1.4-0.6-1.6-4.6-2-7.1c-0.2-1,0.5-2.2,0.9-3.3
		c1.5-5.5,1.2-5.7-4.5-6.4c-1.9-0.2-5.7-0.3-5.3-3s2.9-3.7,4.6-4C88.4,4.9,95.3,4.3,102.9,3.5z"/>
	<path d="M130.3,26.2c-1.4,2.4-2.1,6.5-6,5.1c-1-0.3-1-5.1-0.4-7.5c1.9-8.3,7.1-14.6,13.4-20c3.7-3.2,7.6-1.7,8.5,3.1
		c1,5.9,1.5,11.9,1.7,17.8c0.1,1.4-0.6,3.7-2.9,4.1c-2.2,0.4-4.5-1.6-5.3-3.2c-1.2-2.6-1.4-7.5-2-10.4
		C136.8,15.1,132.2,23.1,130.3,26.2z"/>
	<path d="M41.4,29.3c-0.9,0-2.9-1.5-2.8-1.9c3.7-7.6,7-15.4,11.5-22.4c1.1-1.7,6.4-1.9,9.2-0.9c1.9,0.7,3.7,4.3,4,6.8
		c0.6,4.9,0.5,10,0,14.9c-0.2,1.6-2.5,3.5-4.3,4.2c-2.8,1-4.2-1.1-4.5-3.7c-0.2-1.1,0-2.4-0.3-3.5c-0.5-1.8-1.2-3.5-1.8-5.2
		c-1.4,1.2-2.9,2.4-4.2,3.8C45.5,24.2,42.3,29.3,41.4,29.3z"/>
	<path d="M279.6,8.9c-1.3-1.6,2.9-3.6,4-3.8c7-1.2,14.1-2.2,21.1-2.9c1.8-0.2,4,0.9,5.4,2c1.2,0.9,1.8,2.9,1.9,4.5
		c0,0.6-2.2,2-3.3,1.9c-5.2-0.4-7,2.8-8.2,6.9c-1,3.7-2.1,7.3-3.1,11c-0.8,2.7-2.4,5-5.2,3.6c-1.5-0.7-3-3.6-2.8-5.3
		c0.4-3.7,1.9-7.3,3-11c1.1-3.7,0.8-6.2-4.1-5.9C286,10.1,280.9,10.5,279.6,8.9z"/>
	<path d="M0,31.4c-0.7-3.1,8.6-1.9,9.8-4.1c1.1-2-1.7-5.8-2.4-8.9c-2.2-9.6,7.7-20,17.4-18.1c0.9,0.2,2.2,1.3,2.2,2.1
		c0.1,1.3-0.3,3.1-1.1,3.9c-1.5,1.5-3.6,2.3-5.4,3.5c-5,3.2-5.4,4.8-2.5,10.1c0.9,1.6,1.8,3.2,2.6,4.8c1.6,3.4,1.3,6.5-2.6,7.7
		C12.3,34.1,0.7,34.5,0,31.4z"/>
	<path d="M171.8,22.7c4-2,6.7-3.5,9.4-4.8c1.7-0.8,3.6-1.5,5.5-1.6c1.1-0.1,2.9,0.8,3.2,1.6c0.4,1.2,0,3-0.8,4.1
		c-3.9,5.4-18.1,9.8-24.2,7.3c-1.2-0.5-2.8-2.4-2.7-3.6c0.2-3.6,0.7-7.2,1.8-10.6c1-3.1,2.6-6.1,4.5-8.8c0.9-1.3,2-2.5,4.4-2.8
		s2.3,3.3,2.2,4.9c-0.2,2.7-1.5,5.4-2.2,8.1C172.5,18.1,172.3,19.7,171.8,22.7z"/>
	<path d="M224.1,20.8c1.8,0,4.3-0.1,5.4,2.1c1.1,2.2-2.1,4.9-3.6,5.2c-4.8,1-9.9,1.4-14.8,1.3c-8.3-0.3-8.3-5.3-6.3-12.3
		c1-3.6,3.8-6.9,6.1-10c0.9-1.2,2-2.6,4.2-2.6c2.2-0.1,1,3.7,0.7,5.3c-0.8,3.8-2.1,9-3.2,12.7C212.9,22.9,220.6,20.9,224.1,20.8z"/>
	<path d="M270.7,16.8c1.8,11-12.6,15.1-20.3,11.4c-4.4-2.1-5.9-7.3-3.4-11.9c1.7-3.2,3.6-6.3,5.5-9.4c1.8-3,9.8-3.8,13-1.2
		C268.8,8.6,271.5,11.9,270.7,16.8z M257.9,12.5c-2.5-0.2-4.5,5.2-4,6.5s1.3,2.6,2.4,2.4c1.1-0.1,4.6-2,4.3-4.1
		S260.4,12.7,257.9,12.5z"/>
</g>
</svg>
